<mxfile host="app.diagrams.net" modified="2024-02-13T08:29:26.001Z" agent="Mozilla/5.0 (Windows NT 10.0; Win64; x64; rv:122.0) Gecko/20100101 Firefox/122.0" version="22.1.18" etag="keM837yOJrw2G6gk9P2J" type="github">
  <diagram name="Page-1" id="zQsdM3DyeJnqzr6DKcjN">
    <mxGraphModel>
      <root>
        <mxCell id="0" />
        <mxCell id="1" parent="0" />
      </root>
    </mxGraphModel>
  </diagram>
</mxfile>
